<svg width="21" height="18" viewBox="0 0 21 18" fill="none" xmlns="http://www.w3.org/2000/svg">
<path d="M19.27 6.18C18.98 5.72 18.67 5.29 18.35 4.89C17.98 4.42 17.28 4.38 16.86 4.8L13.8599 7.8C14.0799 8.46 14.1199 9.22 13.9199 10.01C13.5699 11.42 12.4299 12.56 11.0199 12.91C10.2299 13.11 9.46995 13.07 8.80995 12.85C8.80995 12.85 7.37995 14.28 6.34995 15.31C5.84995 15.81 6.00995 16.69 6.67995 16.95C7.74995 17.36 8.85995 17.57 9.99995 17.57C11.7799 17.57 13.5099 17.05 15.0899 16.08C16.6999 15.08 18.1499 13.61 19.3199 11.74C20.2699 10.23 20.22 7.69 19.27 6.18Z" fill="#D7DCE7"/>
<path d="M12.0199 6.98L7.97989 11.02C7.46989 10.5 7.13989 9.78 7.13989 9C7.13989 7.43 8.41989 6.14 9.99989 6.14C10.7799 6.14 11.4999 6.47 12.0199 6.98Z" fill="#D7DCE7"/>
<path d="M16.25 2.74999L12.86 6.13999C12.13 5.39999 11.12 4.95999 10 4.95999C7.76 4.95999 5.96 6.76999 5.96 8.99999C5.96 10.12 6.41 11.13 7.14 11.86L3.76 15.25H3.75C2.64 14.35 1.62 13.2 0.75 11.84C-0.25 10.27 -0.25 7.71999 0.75 6.14999C1.91 4.32999 3.33 2.89999 4.91 1.91999C6.49 0.959993 8.22 0.429993 10 0.429993C12.23 0.429993 14.39 1.24999 16.25 2.74999Z" fill="#D7DCE7"/>
<path d="M12.8601 9C12.8601 10.57 11.5801 11.86 10.0001 11.86C9.94008 11.86 9.89008 11.86 9.83008 11.84L12.8401 8.83C12.8601 8.89 12.8601 8.94 12.8601 9Z" fill="#D7DCE7"/>
</svg>
